<?xml version="1.0" encoding="UTF-8"?>
<svg id="Layer_1" data-name="Layer 1" xmlns="http://www.w3.org/2000/svg" viewBox="0 0 892.62 85.31">
  <defs>
    <style>
      .cls-1 {
        fill: #174549;
      }

      .cls-1, .cls-2 {
        stroke-width: 0px;
      }

      .cls-2 {
        fill: #ed7d30;
      }
    </style>
  </defs>
  <path class="cls-1" d="M70.02,69.96v15.17H26.94c-4.25,0-8.25-.97-11.89-2.79-5.34-2.67-9.71-7.04-12.26-12.38-1.82-3.64-2.79-7.64-2.79-11.89V.18h15.17v59.34c.73,5.34,4.98,9.59,10.31,10.32l44.54.12Z"/>
  <path class="cls-1" d="M164.07,85.13h-16.99l-7.77-15.17-18.57-36.41-18.57,36.41-7.77,15.17h-16.99l7.77-15.17L120.75.18l35.56,69.78,7.77,15.17Z"/>
  <path class="cls-1" d="M256.67,69.84v15.17h-65.65l-.12.12h-19.17l.12-.12,11.65-15.17,20.87-27.06,9.59-12.38,11.65-15.05h-54V.18h84.7l-11.77,15.17-21.12,27.43-9.59,12.38-11.41,14.68h54.24Z"/>
  <path class="cls-1" d="M263.6,85.07h.24l-.24.24v-.24ZM348.55,0l-32.89,42.59-1.82,2.31v40.05h-15.17v-39.8l-2.06-2.55L263.72,0h19.17l23.3,30.22L329.49,0h19.05ZM348.43,85.07h.12v.24l-.12-.24Z"/>
  <path class="cls-1" d="M361.9,42.65c0,15.05,12.26,27.3,27.3,27.3h42.47v15.17h-42.47c-23.42,0-42.47-19.05-42.47-42.47S365.79.18,389.21.18h42.47v15.17h-42.47c-15.05,0-27.3,12.26-27.3,27.3Z"/>
  <path class="cls-1" d="M571.86.3c23.42,0,42.47,18.93,42.47,42.35,0,10.44-3.76,20.02-10.07,27.43-.73.85-1.58,1.7-2.43,2.55-7.64,7.77-18.2,12.5-29.85,12.5h-42.47V.18l42.35.12ZM544.56,70.08h27.3c15.05,0,27.3-12.26,27.3-27.3s-12.26-27.3-27.3-27.3h-27.3v54.61Z"/>
  <path class="cls-1" d="M641.77,23.12v7.89h54.61v15.17h-54.61v16.02c0,4.25,3.52,7.77,7.77,7.77h62.01v15.17h-62.01c-12.62,0-22.81-10.31-22.81-22.94V23.12c0-12.62,10.19-22.94,22.81-22.94h62.01v15.17h-62.01c-4.25,0-7.77,3.52-7.77,7.77Z"/>
  <path class="cls-1" d="M792.26,69.96l7.77,15.17h-16.99l-7.77-15.17-8.13-15.9-.36-.73c-2.67-4.37-7.4-7.28-12.86-7.28h-15.17v39.08h-15.17V.18h53.64c6.31,0,12.01,2.55,16.14,6.67,4.13,4.25,6.68,9.95,6.68,16.26,0,9.22-5.46,17.23-13.35,20.87-2.06.97-4.25,1.58-6.55,1.82l12.14,24.15ZM777.21,30.88c1.09,0,2.18-.24,3.16-.73,2.79-1.21,4.61-4.01,4.61-7.04,0-2.79-1.46-4.73-2.31-5.58-.97-.97-2.79-2.18-5.46-2.18h-38.47v15.65l38.47-.12Z"/>
  <path class="cls-1" d="M877.45,23.72v-.49c0-4.25-3.52-7.77-7.77-7.77h-34.46c-4.25,0-7.77,3.52-7.77,7.77v.49c0,4.25,3.52,7.77,7.77,7.77h30.58c7.89,0,14.93,3.4,19.78,8.74.37.36.61.73.97,1.09,3.76,4.61,6.07,10.56,6.07,16.99,0,14.8-12.01,26.82-26.82,26.82h-26.57c-14.81,0-26.82-12.01-26.82-26.82h15.17c0,6.43,5.22,11.65,11.65,11.65h26.57c6.43,0,11.77-5.22,11.77-11.65s-5.34-11.65-11.77-11.65h-30.58c-6.19,0-11.77-2.43-15.9-6.43-1.09-1.09-2.06-2.31-2.91-3.64-2.55-3.64-4-8.13-4-12.98v-.49c0-12.62,10.19-22.94,22.81-22.94h34.46c12.62,0,22.94,10.31,22.94,22.94v.49l-15.17.12Z"/>
  <g>
    <path class="cls-2" d="M500.44,22.13c2.66-2.03,6.19-2.56,9.55-2.11,2.26.31,4.47,1.06,6.29,2.09,1.95,1.11,3.5,2.59,4.28,4.26.66,1.4.8,2.91.25,4.44l-.03.09c-.93,2.21-2.38,4.19-4.36,5.93-1.89,1.66-4.27,3.1-7.13,4.31-1.74.78-3.31,1.87-4.64,3.2-1.18,1.18-2.17,2.55-2.92,4.07.43,2.42.41,4.88-.04,7.27-.49,2.61-1.5,5.12-2.99,7.39-1.49,2.27-3.41,4.19-5.61,5.67-2.21,1.49-4.71,2.54-7.37,3.06l-2.1.41-.37-2.12c-.56-3.23-.33-6.51.62-9.57.12-.38.25-.76.39-1.13-4.44,1.95-9.13,3.19-13.9,3.71-2.18.24-4.37.32-6.56.26-2.28,3.59-5.53,6.33-9.26,8-4.11,1.84-8.81,2.37-13.43,1.31l-1.67-.38.05-1.71c.07-2.22.8-4.3,2.02-6.02,1.23-1.71,2.96-3.07,5.04-3.85-1.43,2.38-2.67,4.51-2.6,8.21,3.08.35,6.14-.15,8.88-1.37,2.32-1.04,4.41-2.59,6.09-4.59-5.75-.78-11.42-2.62-16.71-5.58l-1.93-1.08,1.17-1.86c5.34-8.47,12.17-14.65,19.37-18.35,5.21-2.68,10.64-4.08,15.85-4.13,5.28-.05,10.32,1.27,14.71,4.04,3.09,1.95,5.85,4.6,8.12,7.98.65-.92,1.38-1.79,2.17-2.59,1.69-1.69,3.68-3.07,5.9-4.06l.04-.02c2.46-1.04,4.47-2.25,6.04-3.63,1.48-1.3,2.56-2.75,3.24-4.36.12-.38.06-.78-.12-1.17-.41-.86-1.35-1.7-2.58-2.41-1.37-.78-3.05-1.36-4.76-1.59-2.36-.32-4.77,0-6.47,1.29-.13.11-.26.21-.38.32.11.31.21.62.29.93.47,1.82.41,3.69-.36,5.45-.83,1.89-2.46,3.57-5.11,4.79.54-2.74,1.92-4.9,1.52-8.8-.06-.63-.07-1.43.07-2.33.27-1.69.56-2.79,1.45-3.68ZM497.54,48.85c-2.17-4.13-5.06-7.22-8.38-9.31-3.7-2.33-7.97-3.44-12.45-3.4-4.55.05-9.33,1.29-13.97,3.68-6.03,3.1-11.8,8.13-16.51,14.97,7.48,3.68,15.7,5.04,23.68,4.17,14.01-1.53,20.72-7.6,26.71-7.49-1.6,1.42-3.27,2.72-5.01,3.89-1.75,1.85-3.02,4.04-3.75,6.41-.53,1.71-.78,3.51-.72,5.33,1.28-.45,2.5-1.06,3.61-1.81,1.75-1.18,3.27-2.7,4.45-4.49,1.18-1.79,1.98-3.79,2.37-5.87.37-1.98.37-4.04-.03-6.06h0Z"/>
    <path class="cls-2" d="M438.13,42.65c0-11.71,4.75-22.31,12.42-29.98,7.67-7.67,18.27-12.42,29.98-12.42,4.96,0,9.73.86,14.17,2.43,4.6,1.63,8.83,4.03,12.55,7.05l-2.64,3.24c-3.34-2.71-7.16-4.88-11.3-6.35-3.99-1.41-8.29-2.18-12.78-2.18-10.55,0-20.11,4.28-27.02,11.19-6.91,6.91-11.19,16.47-11.19,27.02h-4.19ZM522.93,42.65c0,11.71-4.75,22.31-12.42,29.98-7.67,7.67-18.28,12.42-29.98,12.42-4.04,0-7.95-.57-11.66-1.63-3.83-1.09-7.44-2.71-10.74-4.77l2.21-3.55c2.98,1.86,6.23,3.31,9.68,4.3,3.34.95,6.86,1.46,10.52,1.46,10.55,0,20.11-4.28,27.02-11.19,6.91-6.91,11.19-16.47,11.19-27.02h4.19Z"/>
  </g>
</svg>